<?xml version="1.0" encoding="utf-8"?>
<!-- Generator: Adobe Illustrator 26.3.1, SVG Export Plug-In . SVG Version: 6.00 Build 0)  -->
<svg version="1.1" id="Camada_1" xmlns="http://www.w3.org/2000/svg" xmlns:xlink="http://www.w3.org/1999/xlink" x="0px" y="0px"
	 viewBox="0 0 23.5 25.6" style="enable-background:new 0 0 23.5 25.6;" xml:space="preserve">
<style type="text/css">
	.st0{fill-rule:evenodd;clip-rule:evenodd;}
	.st1{fill-rule:evenodd;clip-rule:evenodd;fill:#901F39;}
	.st2{fill-rule:evenodd;clip-rule:evenodd;fill:#B2D8D4;}
	.st3{fill-rule:evenodd;clip-rule:evenodd;fill:#E4EAF5;}
	.st4{fill-rule:evenodd;clip-rule:evenodd;fill:#C8E8E5;}
	.st5{fill-rule:evenodd;clip-rule:evenodd;fill:#F7CE5E;}
	.st6{fill-rule:evenodd;clip-rule:evenodd;fill:#EDA60A;}
</style>
<g id="Conteúdo_x0020_do_x0020_PowerClip">
	<g id="_2052033132976">
		<path class="st0" d="M2.9,16.2c0.5-0.1,0.4-0.4,0.4-1.1c0-1.1-0.1-3.5,0.1-4.4c0.2-0.8,0.7-1.4,1.1-1.9c0.7-0.9,0.7-0.9,0.7-2.3
			V3.2H7v3.3c0,0.8,0,1.3,0.3,1.8C7.6,8.7,8,9,8.3,9.5c0.8,1.1,0.7,2,0.7,3.7c-0.6,0-3.1-0.1-3.5,0.1c-0.4,0.2-0.6,0.6-0.6,1.2v3.6
			c0,0.6,0.1,1,0.5,1.3c0.4,0.2,2.8,0.1,3.5,0.1c0.1,0.8,0,3.7,0,4.7c0,0.8-0.3,0.6-1.8,0.6H3.6c-0.4-0.1-0.3-0.4-0.3-0.8v-6
			c0-0.5,0.1-0.7-0.4-0.8c-0.3,0-0.4,0.2-0.4,0.6V21c0,0.9-0.1,3.5,0.1,4c0.3,0.7,0.9,0.7,1.4,0.7h4.3c0.4,0,0.7,0,0.8-0.1
			c0.2-0.1,0.4-0.3,0.5-0.5c0.3-0.5,0.1-3.1,0.1-4v-8.3c0-2.2-0.1-2.6-1.1-4c-0.7-1.2-0.8-1-0.8-2.4V3.3C7.8,2.8,8,3.1,8,2.5
			c0-1.7-0.1-0.9-0.2-1.3c0-0.2,0.1-0.9-0.5-1.1c0,0-0.1,0-0.2,0H5.2C4.3,0.1,4.6,1,4.4,1.3C4.2,1.6,4.3,1.5,4.3,2.2
			c0,0.9,0,0.5,0.2,0.8c0.1,0.2,0,2.8,0,3.1c0,0.8,0.1,1.3-0.3,1.8c-1.1,1.7-1.7,1.5-1.7,4.5v3.1C2.5,15.9,2.5,16.1,2.9,16.2
			L2.9,16.2z"/>
		<path class="st1" d="M2.9,16.2v1c0.5,0.1,0.4,0.3,0.4,0.8v6c0,0.4-0.1,0.8,0.3,0.8h3.6C8.8,24.8,9,25,9,24.2c0-1,0-4,0-4.7
			c-0.7,0-3.1,0.1-3.5-0.1C5,19.1,5,18.8,5,18.1v-3.6c0-0.6,0.1-1,0.6-1.2c0.4-0.2,2.9-0.1,3.5-0.1c0-1.6,0.1-2.5-0.7-3.7
			C8,9,7.6,8.7,7.4,8.2C7,7.7,7,7.1,7,6.4H5.2c0,1.4,0,1.5-0.7,2.3c-0.4,0.5-0.9,1.1-1.1,1.9c-0.2,0.9-0.1,3.2-0.1,4.4
			C3.3,15.7,3.4,16.1,2.9,16.2L2.9,16.2z"/>
		<path class="st0" d="M11.3,14.6c0,1.1,0,1.7,0.7,2.7c0.1,0.2,0.5,0.6,0.7,0.7c0.7,0.5,1.2,0.9,2.1,1.1v4.4c-0.1,0-2,1.1-2.2,1.3
			c-0.2,0.3,0,0.7,0.4,0.7h4.5c0.1,0,0.8-0.4-0.1-0.9c-0.3-0.2-1.6-1-1.8-1v-4.4c0.8-0.1,1.9-0.9,2.4-1.4c1.3-1.3,1.2-3.5,0.7-5.2
			c-0.2-0.6-0.4-1.9-0.9-1.9h-5.3c-0.2,0-0.3,0.1-0.4,0.2c-0.1,0.3-0.4,1.2-0.5,1.5C11.5,13.1,11.3,13.9,11.3,14.6L11.3,14.6z"/>
		<path class="st1" d="M14.7,14.4h-1c-0.1,0.5-0.7,0.4-1.6,0.4c0,1.2,0.2,1.7,0.9,2.6c0.3,0.4,1.4,1.1,2.2,1.1c1,0,1.8-0.7,2.2-1.1
			c0.6-0.6,0.9-1.4,0.9-2.6h-3C15,14.8,14.8,14.8,14.7,14.4L14.7,14.4z"/>
		<path class="st2" d="M7,18.8h2v-4.9H7V18.8z"/>
		<path class="st3" d="M13.7,14.4h1c0-0.3,0.1-0.3,0.3-0.4c0.1-0.1,0,0,0.2-0.1c0,0,0.1,0,0.2,0h0.9c0-0.6-0.3-1.9-0.5-2.4h-3
			c-0.2,0.2-0.6,2-0.6,2.4c0.3,0,0.6,0,0.9,0C13.5,14,13.7,14,13.7,14.4z"/>
		<path class="st4" d="M7,18.8v-4.9c-0.3,0-0.9,0-1.2,0c-0.2,0.3-0.1,1.8-0.1,2.4C5.7,19.2,5.4,18.7,7,18.8L7,18.8z"/>
		<path class="st5" d="M5.2,6.4H7V3.1H5.2V6.4z"/>
		<path class="st4" d="M15,14h3.2c0-0.4-0.4-2.1-0.6-2.4c-0.1-0.2-0.1-0.1-0.4-0.1h-4.3c-0.3,0-0.1,0-0.3,0.1h3
			c0.2,0.5,0.4,1.8,0.5,2.4h-0.9C15.2,14,15.1,14,15,14C15,14,15.1,14,15,14L15,14z"/>
		<path class="st6" d="M5,2.4h2.2V1.9H5V2.4z"/>
		<path class="st5" d="M5.2,1.1H6h1V0.8H6H5.2V1.1z"/>
		<path class="st4" d="M14.2,24.8h2c-0.1-0.1-0.3-0.2-0.4-0.3C15.3,24.3,14.6,24.5,14.2,24.8z"/>
	</g>
</g>
</svg>
