<svg xmlns="http://www.w3.org/2000/svg" xml:space="preserve" width="23.6" height="23.631" style="shape-rendering:geometricPrecision;text-rendering:geometricPrecision;image-rendering:optimizeQuality;fill-rule:evenodd;clip-rule:evenodd" viewBox="0 0 8179 8190"><defs><style>.fil8{fill:#2cbef2}.fil3{fill:#673a0d}.fil2{fill:#cacaca}.fil1{fill:#e99d2d}.fil12{fill:#fab53e}.fil7{fill:#fcc9a6}</style></defs><g id="Conteúdo_x0020_do_x0020_PowerClip"><g id="_2051878503904"><path d="m1663 5407 3637 3c320 40 322 508 0 549l-3637 3v416c-155 0-466-45-532 58-49 75-14 173 46 204 60 30 190 16 278 16 98-17 196-107 371-130 180-24 3312-7 3597-9l36-16c302-110 521-232 623-624 36-139 9-268 0-399v-17l-18-35v-17l-18-17-34-104-17-17v-17l-18-17-17-35c-43-29-138-195-371-288-32-13-48-17-78-26-118-37-4 22-89-33l-1538 1H2494c-375 0-751 2-1126 0-100 0-186-15-239 38-50 50-50 151 0 201 81 81 388 38 534 38v277z" style="fill:#d32b39"/><path class="fil1" d="M1455 6655c-45 67-92 47-222 245-155 235-162 541-60 782 91 215 276 383 497 456 222 74 1140 41 1415 41h1923c289 0 676 22 953 0 178-14 175-222 58-267-80-31-367-11-474-11v-277l-3637-3c-319-40-323-509 0-549l3637-3v-277c133 0 478 58 410-183-39-138-295-93-532-94-285 2-3417-15-3597 9-175 23-273 114-371 130z"/><path class="fil2" d="m1663 5962 3637-3c322-41 320-509 0-549l-3637-3v555zM5545 7625v-555l-3637 3c-323 40-319 508 0 549l3637 3z"/><path class="fil1" d="M1248 2773h278c0-167-1-335 0-503 2-176 15-124-183-320-193-191-29-277 30-283 111-11 209 159 292 208 83-49 181-219 292-208 60 6 221 94 30 284-249 247-183 97-183 822h278c107-71 260-311 315-448 108-269 177-629-3-938-38-65-111-164-170-211-697-557-1722 66-1288 1149 55 136 208 377 315 448z"/><path class="fil3" d="m3885 4853 1538-1h399c10 45 50 129 70 173 29 65 50 92 69 174l17 35 18 17v17l17 17 34 104 18 17v17l18 35v17c39 46 49 83 76 149l224 475 410-410c-13-67-68-172-98-237-40-86-67-154-105-242-71-166-144-316-211-480-90-158-95-269-280-329-150-48-337-86-497-126-163-41-899-205-986-256l-41 8c-41 29-652 763-689 824zM3335 1942c37-70 101-118 152-169 88-88 66-111 238-109 231 2 463 1 694 1 61-45 139-409 163-495 49-171 95-347-64-523-131-146-480-213-662 92-39 65-96 159-114 233-105-50-267-101-405-41-331 146-252 428-160 657 26 66 43 107 69 173l55 136c28 50 0 12 32 45z"/><path d="M5008 3245c100 20 475 117 543 164 67 46 126 129 133 231 9 129-48 180-87 259l329 121h52c6-72 99-243 131-320l385-866c26-62 15-61 4-75-87-22-645-229-685-265-140-27-290-128-424-139-5 64-147 359-185 439-72 154-127 300-196 449z" style="fill:#02a338"/><path d="M6379 4731c62 18 166 92 235 127 90 46 156 90 243 138 169 95 322 183 491 272l138-572c-67-18-901-553-1010-619-142-85-272-58-497-57H4616c87 51 823 215 986 256 160 40 347 78 497 126 185 60 191 171 280 329z" style="fill:#55300b"/><path d="M3344 3051c-51 175-22 611 23 782 29 51 89 143 99 223l399 797h21c37-61 648-796 689-824-39-94-135-189-156-267l-662-147-13-24c-2-4-4-9-6-13-9-23 6 23-9-27l-44-181c-84-336-177-495-66-735-35 14-23 11-45 38-54 65-232 323-228 378z" style="fill:#0296e5"/><path class="fil7" d="m3756 3614 662 147 900 210c127 25 183-21 278-72 39-79 96-131 87-259-7-103-66-185-133-231-67-47-443-144-543-164-43-26-642-189-716-195-136 158-328 330-479 485-43 44-31 23-56 78zM3335 1942c-59 318 114 577 321 645 70-34 133-91 243-89 132 2 156 54 243 85l80-59c87-65 162-172 195-273 31-98 47-495 3-586-231 0-463 2-694-1-172-2-150 21-238 109-51 51-114 99-152 169zM2495 4853h572l398-797c-9-80-69-173-99-223-115-51-191-156-300-209-41 45-52 87-77 147-25 61-47 94-74 152l-422 930z"/><path class="fil2" d="m6382 6100 130 417 752-118c130-21 82-66 82-455-145-34-438-245-554-254l-410 410z"/><path class="fil8" d="m3656 2586-38 49c-111 240-17 399 66 735l44 181c15 50 0 4 9 27 2 4 4 9 6 13l13 24c25-55 13-34 56-78 151-155 343-327 479-485 4-62-35-181-53-253-30-121-50-125-97-215-86-31-110-83-243-85-109-2-173 54-243 89z"/><path class="fil2" d="m7485 4697-138 572c43 21 510 137 572 139 10-116 249-578 260-710-108-9-248-84-358-112-120-31-226 86-336 112zM1248 3333h831v-560h-831z"/><path d="M1525 2773h277c0-725-65-575 183-822 191-189 30-278-30-284-111-11-209 159-292 208-82-49-181-219-292-208-58 6-223 93-30 283 198 196 185 144 183 320-2 167 0 335 0 503z" style="fill:#c38325"/><path d="M5813 2496c40 36 598 242 685 265-15-71-144-265-187-337-41-68-180-283-194-343l-304 416z" style="fill:#027e2a"/><path d="M2079 3333h-832c51 63 109 112 169 173 102 103 56 100 247 100 190 0 145 3 247-100 60-61 118-110 169-173z" style="fill:#eaeae8"/><path class="fil12" d="M2149 573c0 88 45 156 121 156 116 0 137-69 183-146 62-104 215-333-2-382-61-13-109 22-142 64-39 49-160 252-160 308zM762 313c0 116 162 416 260 416 110 0 156-54 156-156 0-64-42-107-69-156-47-86-110-230-221-218-53 6-126 63-126 114zM208 867c0 121-4 118 152 211 71 42 150 100 229 100 84 0 139-55 139-139 0-108-87-130-157-172-99-59-144-105-259-105-42 0-104 62-104 104zM208 2392c0 318 322 115 461 11 135-101 18-348-199-216-36 22-60 34-99 57-51 30-163 85-163 149zM0 1664c0 181 208 139 416 139 186 0 186-277 0-277-208 0-416-43-416 139zM1525 139c0 208-43 416 139 416 181 0 139-208 139-416 0-186-277-186-277 0z"/><path class="fil8" d="M3067 3624c109 53 185 157 300 209-45-171-73-606-23-782-75 47-32 11-87 138-20 47-48 93-69 139-35 79-117 237-122 295z"/></g></g></svg>