<?xml version="1.0" encoding="utf-8"?>
<!-- Generator: Adobe Illustrator 26.3.1, SVG Export Plug-In . SVG Version: 6.00 Build 0)  -->
<svg version="1.1" id="Camada_1" xmlns="http://www.w3.org/2000/svg" xmlns:xlink="http://www.w3.org/1999/xlink" x="0px" y="0px"
	 viewBox="0 0 56 56" style="enable-background:new 0 0 56 56;" xml:space="preserve">
<style type="text/css">
	.st0{fill-rule:evenodd;clip-rule:evenodd;fill:#888888;}
</style>
<path class="st0" d="M28,54c-7.3,0-13.9-3-18.6-7.9c0.1-0.1,0.2-0.3,0.2-0.5c0.7-1,6.6-4.2,13.6-7c0.4-0.2,0.6-0.5,0.6-0.9v-5.2
	c0-0.4-0.3-0.8-0.6-0.9c0,0-1.9-0.9-1.9-5.5c0-0.6-0.4-1-1-1c-0.7,0-0.9-0.9-0.9-1.6c0-0.5,0.1-0.9,0.3-1.2c0.2-0.3,0.4-0.4,0.6-0.4
	c0.6,0,1-0.4,1-1c0-0.4-0.2-0.7-0.5-1.5c-1-2.2-1.3-3.5-1-3.9c0.1-0.1,0.5-0.2,1.5,0c0.5,0.1,1-0.2,1.2-0.7c0.5-2.1,3.8-3.1,6.7-3.1
	c2.9,0,6.2,1,6.7,3.1c0.5,2-0.3,3.9-0.8,5c-0.2,0.5-0.4,0.9-0.4,1.2c0,0.6,0.4,1,1,1c0.1,0,0.4,0,0.6,0.8c0.2,1.1-0.3,2.3-0.6,2.4
	c-0.6,0-1,0.4-1,1c0,4.6-1.7,5.5-1.7,5.5c-0.2,0.1-0.4,0.2-0.5,0.4c-0.1,0.2-0.2,0.4-0.2,0.6v5.2c0,0.4,0.2,0.8,0.6,0.9
	c7,2.8,12.9,6,13.6,7c0,0.2,0.1,0.3,0.2,0.5C41.9,51,35.3,54,28,54z M28,2c14.3,0,26,11.7,26,26c0,6.1-2.1,11.9-6,16.6
	c-1.9-2.5-10.3-6.1-13.8-7.5v-3.9c0.8-0.7,2.2-2.3,2.4-6.3c1-0.6,1.6-2.1,1.6-3.6c0-1.4-0.5-2.4-1.3-2.9c0.6-1.3,1.4-3.6,0.8-6.1
	c-0.9-3.4-5.2-4.6-8.6-4.6c-3.1,0-7,1-8.3,3.8c-1.2-0.1-2,0.2-2.6,0.9c-1.2,1.5,0,4.2,0.8,6l0,0c-1,0.6-1.6,1.8-1.6,3.2
	c0,1.7,0.8,2.9,2,3.4c0.2,3.9,1.7,5.6,2.6,6.2V37c-3.2,1.3-6.5,2.8-9,4.2c-3.1,1.7-4.4,2.6-4.9,3.3C4.1,39.9,2,34,2,28
	C2,13.7,13.7,2,28,2z M28,0C12.6,0,0,12.6,0,28s12.6,28,28,28s28-12.6,28-28S43.4,0,28,0z"/>
</svg>
