<?xml version="1.0" encoding="utf-8"?>
<!-- Generator: Adobe Illustrator 26.3.1, SVG Export Plug-In . SVG Version: 6.00 Build 0)  -->
<svg version="1.1" id="Camada_1" xmlns="http://www.w3.org/2000/svg" xmlns:xlink="http://www.w3.org/1999/xlink" x="0px" y="0px"
	 viewBox="0 0 57 56" style="enable-background:new 0 0 57 56;" xml:space="preserve">
<style type="text/css">
	.st0{fill-rule:evenodd;clip-rule:evenodd;fill:#F6B554;}
	.st1{fill-rule:evenodd;clip-rule:evenodd;fill:#FFFFFF;filter:url(#Adobe_OpacityMaskFilter);}
	.st2{mask:url(#mask1_00000003101171616086682800000012994931626967809162_);}
	.st3{clip-path:url(#SVGID_00000179644204726460854940000011372098751507469758_);}
	.st4{fill:none;stroke:#404040;stroke-width:0.5;}
	.st5{fill:#FFFFFF;filter:url(#Adobe_OpacityMaskFilter_00000057125694900842216700000016210450408504155307_);}
	.st6{mask:url(#mask2_00000139981462437845460530000010991534781343926171_);}
	.st7{fill:#C2977C;}
	.st8{fill-rule:evenodd;clip-rule:evenodd;fill:#EB8930;}
	.st9{fill-rule:evenodd;clip-rule:evenodd;fill:#5CB79F;}
	.st10{fill-rule:evenodd;clip-rule:evenodd;fill:#DF3378;}
	.st11{fill-rule:evenodd;clip-rule:evenodd;fill:#B71277;}
	.st12{fill-rule:evenodd;clip-rule:evenodd;fill:#F75F75;}
	.st13{fill-rule:evenodd;clip-rule:evenodd;fill:#F5B554;}
	.st14{fill-rule:evenodd;clip-rule:evenodd;fill:#222222;}
</style>
<path class="st0" d="M29,56c15.5,0,28-12.5,28-28S44.5,0,29,0S1,12.5,1,28S13.5,56,29,56z"/>
<defs>
	<filter id="Adobe_OpacityMaskFilter" filterUnits="userSpaceOnUse" x="9" y="-1" width="95.8" height="66">
		<feColorMatrix  type="matrix" values="1 0 0 0 0  0 1 0 0 0  0 0 1 0 0  0 0 0 1 0"/>
	</filter>
</defs>
<mask maskUnits="userSpaceOnUse" x="9" y="-1" width="95.8" height="66" id="mask1_00000003101171616086682800000012994931626967809162_">
	<path class="st1" d="M29,56c15.5,0,28-12.5,28-28S44.5,0,29,0S1,12.5,1,28S13.5,56,29,56z"/>
</mask>
<g class="st2">
	<g>
		<defs>
			<rect id="SVGID_1_" x="9" y="-1" width="47" height="66"/>
		</defs>
		<clipPath id="SVGID_00000000918394144693362470000017552608261303197332_">
			<use xlink:href="#SVGID_1_"  style="overflow:visible;"/>
		</clipPath>
		<g style="clip-path:url(#SVGID_00000000918394144693362470000017552608261303197332_);">
			<path class="st4" d="M36,5c-0.2-1.8-3.4-3-7-3s-6.9,1.2-7,3"/>
			<defs>
				
					<filter id="Adobe_OpacityMaskFilter_00000000901912450477858770000010362533537653466536_" filterUnits="userSpaceOnUse" x="9" y="4" width="95.8" height="60">
					<feColorMatrix  type="matrix" values="1 0 0 0 0  0 1 0 0 0  0 0 1 0 0  0 0 0 1 0"/>
				</filter>
			</defs>
			
				<mask maskUnits="userSpaceOnUse" x="9" y="4" width="95.8" height="60" id="mask2_00000139981462437845460530000010991534781343926171_">
				<path style="fill:#FFFFFF;filter:url(#Adobe_OpacityMaskFilter_00000000901912450477858770000010362533537653466536_);" d="
					M9,56h40V4H9V56z"/>
			</mask>
			<g class="st6">
				<path class="st7" d="M9,56h40V4H9V56z"/>
				<path class="st8" d="M42.1,51.7l-8.7-5.2L45.1,26l8.7,5.2L42.1,51.7z"/>
				<path class="st9" d="M9,37.9v22.2h3.2l13.5-23.9L14,29L9,37.9z"/>
				<path class="st10" d="M29.6,53.2l11.1,6.6h7.6l1.5-2.6L33,47.3L29.6,53.2z"/>
				<path class="st11" d="M35.6,40.7l-8.3-5l2.8-4.9l8.3,5L35.6,40.7z"/>
				<path class="st12" d="M43.1,52.3L63,64l41.8-5l-50-27.3L43.1,52.3z"/>
				<path class="st10" d="M9,24.8l17.2,10.4l3.8-6.7L9,15.8V24.8z"/>
				<path class="st12" d="M9,34.1l0.7,0.4l3.4-6.1L9,26V34.1z"/>
				<path class="st13" d="M26.6,56.6l-8.4-5.1l8.5-15l8.4,5.1L26.6,56.6z"/>
			</g>
			<path class="st14" d="M42,16.8c-0.4,0.1-0.8,0.2-2.1,0.2c-1.5,0-2.6-0.4-2.6-2.5v-2.6c0-2.1,1.1-2.5,2.6-2.5
				c1.3,0,1.8,0.1,2.1,0.2c0.2,0,0.2,0.1,0.2,0.3v0.8c0,0.1-0.1,0.2-0.2,0.2h-2.3c-0.7,0-0.9,0.2-0.9,1.1v0.5h3
				c0.1,0,0.2,0.1,0.2,0.2v0.9c0,0.1-0.1,0.2-0.2,0.2h-3v0.7c0,0.8,0.2,1.1,0.9,1.1H42c0.1,0,0.2,0.1,0.2,0.2v0.8
				C42.2,16.8,42.1,16.8,42,16.8z"/>
			<path class="st14" d="M28.5,10l-1.1,6.8c0,0.1-0.1,0.2-0.2,0.2h-0.1c-0.1,0-0.1-0.1-0.1-0.2v0l1-6.8c0-0.1,0.1-0.2,0.2-0.2h0.1
				C28.4,9.8,28.5,9.9,28.5,10L28.5,10z"/>
			<path class="st14" d="M25.8,10L24.9,16c-0.1,0.8-0.4,1-1,1h-0.6c-0.5,0-0.8-0.3-1-1l-0.9-3c0-0.1,0-0.1-0.1-0.1s-0.1,0-0.1,0.1
				l-0.9,3c-0.2,0.7-0.4,1-1,1h-0.6c-0.6,0-0.9-0.2-1-1l-1-6.1v0c0-0.1,0.1-0.2,0.2-0.2h1.2c0.1,0,0.2,0.1,0.2,0.2l0.7,5.4
				c0,0.1,0,0.2,0.1,0.2c0,0,0-0.1,0.1-0.2l1-3.3c0.1-0.3,0.2-0.6,0.7-0.6h0.8c0.5,0,0.7,0.3,0.7,0.6l1,3.3c0,0.1,0,0.2,0.1,0.2
				c0,0,0-0.1,0.1-0.2l0.7-5.4c0-0.1,0.1-0.2,0.2-0.2h1.2C25.7,9.8,25.8,9.8,25.8,10L25.8,10z"/>
			<path class="st14" d="M35.6,9.8h-0.1c-0.1,0-0.2,0.1-0.2,0.2l-1,6.4c0,0-0.1,0.1-0.1,0.1c0,0,0,0,0,0v0c0,0,0,0,0,0
				c0,0,0,0-0.1-0.1l-1.9-6.3c-0.1-0.2-0.2-0.4-0.5-0.4c0,0,0,0,0,0v0c0,0,0,0,0,0v0c-0.2,0-0.5,0.2-0.6,0.6l-1,6.4v0
				c0,0.1,0.1,0.2,0.2,0.2h0.1c0.1,0,0.2-0.1,0.2-0.2l1-6.4c0-0.1,0-0.1,0.1-0.1v0c0,0,0,0,0,0c0,0,0,0,0,0v0c0,0,0.1,0,0.1,0.1
				l1.9,6.3c0.1,0.3,0.2,0.4,0.5,0.4c0,0,0,0,0,0c0,0,0,0,0,0v0c0.3,0,0.5-0.2,0.6-0.6l1-6.4v0C35.7,9.9,35.7,9.8,35.6,9.8z"/>
		</g>
	</g>
</g>
<path class="st7" d="M9,9h40V4H9V9z"/>
</svg>
