<svg xmlns="http://www.w3.org/2000/svg" xml:space="preserve" width="24.862" height="24.814" style="shape-rendering:geometricPrecision;text-rendering:geometricPrecision;image-rendering:optimizeQuality;fill-rule:evenodd;clip-rule:evenodd" viewBox="0 0 5359 5349"><defs><style>.fil5{fill:#a81e29}.fil0{fill:#cb3541}.fil6{fill:#de3d3d}.fil1{fill:#e68c15}.fil7{fill:#fbfafa}.fil3{fill:#fd6060}.fil4{fill:#febc53}.fil2{fill:#ffac38}</style></defs><g id="Conteúdo_x0020_do_x0020_PowerClip"><g id="_2051897427776"><path class="fil0" d="M2075 4963v2c392 61 803 37 1207 39v-68c-309 80-112-192-208-307-27-32-84-43-136-54-146-31-93-34-145-56-19-156 163-276 47-376-124-108-298-140-26-329 107-74 65-127 4-255-32-68-47-146 32-174 36-13 176-47 206-51 29 31 66 115 80 158 36 107-35 146-132 210-25 17-44 32-55 62-49 131 168 142 193 262 13 63-29 127-54 179-94 193 59 162 195 211 182 72-16 367 170 361 198-7 230-142 335 110 91 216 170 76 283-8 145-107 214 132 351 122 47-26 27-22 58-67 27-69 81-240 188-189 83 12 148 51 230 22 7-18 9-25 22-45 52-91-58-247 87-298 85-30 259-26 231-145-21-87-128-204-73-279 48-65 186-118 186-202 0-85-138-137-186-202-55-75 52-192 73-279 28-119-145-115-231-145-57-20-76-39-77-117-2-82 4-127-10-197-70-71-121-35-219-12-245 57-153-248-299-252-72-2-122 84-175 106-26 29-31 42-83 42-53 0-56-14-83-42-30-12-60-45-89-66-111-84-116-20-173 41l-66 141c-52 62-123 52-201 15-124-15-171-31-171 116-1 112 26 199-82 228-39 24-132 42-178 45-2-87-19-183 45-229 59-9 80-2 136 13v-585H2075v2546z"/><path class="fil1" d="M2076 5349v-385c-604-133-1098-638-1191-1290-27-190-16-414-16-609 0-192-32-405 87-528 145-150 259-119 506-119 205 0 410-1 614 0v-345l-86-1-1552-1v2459c0 144-21 496 18 596 74 189 207 223 391 223h1229z"/><path class="fil2" d="M2075 4963V2417c-205-1-410 0-614 0-247 0-361-31-506 119-119 123-87 335-87 528 0 195-11 419 16 609 93 652 587 1158 1191 1290z"/><path class="fil3" d="M3555 3035c-53 81 6 209-55 257-63 49-210 18-212 107-2 70 94 158 62 228-28 61-151 106-151 171 0 59 118 115 147 164 43 71-62 159-59 235 4 85 141 61 206 103 75 48 4 172 62 261 96 28 140-36 244-15 87 95 79 291 239 148 186-166 171 52 323 51 67-47 74-142 131-199 101-21 148 43 244 15 54-83-6-209 55-257 63-49 209-18 213-107 3-70-95-157-63-228 27-60 151-105 151-171 0-62-116-110-147-164-43-74 62-158 59-235-3-85-142-62-206-103-75-48-4-172-62-261-96-27-141 36-244 15-58-63-85-237-183-190-94 45-122 172-249 63-115-100-137-112-208 42-86 189-148 26-298 70z"/><path class="fil2" d="m437 2071 1552 1v-431c-257-11-958 16-1118-5-139-19-258-142-258-295 0-215 171-258 246-302H286c-120 0-176-12-237 54-59 66-44 129-44 247 0 175-14 416 0 582 17 195 263 158 431 149z"/><path class="fil3" d="M1989 1640h1380v-603H1990z"/><path class="fil4" d="M1989 1640v-603H859c-75 43-246 87-246 302 0 154 119 277 258 295 160 22 861-6 1118 5z"/><path class="fil1" d="M3283 4931c117-33 184-33 219 73h-219v345h1132c240 0 314 9 434-126 99-112 73-298 73-502-12 19-15 26-22 45-11 79-100 167-158 198-84 45-211 51-317 36-137 10-206-229-351-122-114 84-193 225-283 8-105-252-137-117-335-110-186 7 12-289-170-361l-1 515z"/><path class="fil4" d="M4231 1639h625c102 0 212 4 313 0 121-5 130-61 183-130 0-213 64-473-194-471-224 1-456 5-679 0l-248 1v601z"/><path class="fil5" d="M3089 784c-55 45-57 77-161 82h-497c-105-4-106-36-161-81-8 11-13 18-22 27 0-188-108-493-200-582-41 290-132 198-357 147-191-43-352-71-554-33-18 25-11 49-11 90 262 12 562 67 753 182 90 39 173 92 245 147 137 104 123 61 123 276h862c0-204-33-163 167-307 90-64 199-116 312-170 99-25 187-67 302-91 114-23 221-32 340-37 0-56 1-61-11-104-409-47-671 182-777 62-61-69-36-174-44-226-4-23-2-14-9-27-166 156-280 440-280 673-1-2-4-8-4-6l-17-21z"/><path class="fil0" d="M1989 2072h1380v-432H1989z"/><path class="fil2" d="M4231 1639v432h690c69 4 291 17 347-18 25-15 49-40 65-65 40-65 20-369 20-479-52 69-62 125-183 130-101 4-211 0-313 0h-625z"/><path class="fil5" d="M3283 4936v-5l1-515c-136-49-289-18-195-211 25-52 67-116 54-179-25-119-241-131-193-262 11-31 30-45 55-62 97-64 167-103 132-210-14-43-51-127-80-158-30 4-170 38-206 51-79 28-64 106-32 174 61 128 103 180-4 255-272 189-98 221 26 329 116 101-67 220-47 376 52 22 0 26 145 56 52 11 109 22 136 54 96 115-102 387 208 307z"/><path class="fil0" d="M3110 1037h1121l248-1c33-22 97-31 151-118 26-41 57-171 22-234-93 101-93 95-269 95h-733c-147-9-89-134-60-219-113 54-222 105-312 170-200 144-167 103-167 307zM879 1037h1368c0-215 14-172-123-276-73-55-155-108-245-147 40 172-42 165-192 165h-377c-357 0-506 64-532-217-61 53-101 148-80 278 13 78 77 146 145 178l36 18z"/><path class="fil5" d="M2076 5349h1207v-345c-404-2-815 23-1207-39v383zM2076 2417h1207v-345H2076z"/><path class="fil4" d="m3369 1640 690-1v-601l-690-1z"/><path class="fil6" d="M779 563c25 281 175 217 532 217h377c150 0 233 7 192-165-191-114-491-170-753-182-151 4-274 47-349 130zM3589 561c-29 86-88 210 60 219h733c176 0 176 6 269-95-34-162-223-246-420-252-120 5-226 14-340 37-115 24-204 65-302 91z"/><path class="fil1" d="M3283 2417h518l-1 255c58-61 63-125 173-41v-215h87v-346l-689 1-86 1v345z"/><path class="fil2" d="m3369 2072 690-1v-432l-690 1z"/><path class="fil5" d="M4059 1639v778l3 281c27 28 30 42 83 42 52 0 57-13 83-42l3-281V1038h-172v601z"/><path class="fil0" d="M1138 343c201-38 362-10 554 33 225 51 316 142 357-147-45-47-14-37-93-96C1821 33 1736 2 1537 2c-220 0-387 169-398 341zM3391 139c7 13 5 4 9 27 8 53-18 157 44 226 106 119 368-110 777-62-15-76-65-166-111-216-116-128-365-134-511-85-140 47-115 57-208 110z"/><path class="fil1" d="M4231 2417h690v-346h-690z"/><path class="fil7" d="M4548 3289c-42 19-900 878-912 905-31 71 40 142 112 112 20-8 892-873 906-906 29-70-37-142-106-110z"/><path class="fil2" d="M4228 2698c53-22 103-108 175-106 146 4 53 310 299 252 98-23 149-59 219 12v-439h-690l-3 281zM3282 3002l-3 171c108-29 81-116 82-228 1-147 47-132 171-116 51-7 14 2 41-33 16-20 19-30 54-31 44-1 75 36 106 49l66-141 1-255h-518v585z"/><path class="fil7" d="M3834 3114c-341 76-222 578 111 504 123-27 230-153 194-310-28-122-149-228-305-194zM4351 3976c-341 76-222 578 111 504 123-27 230-153 194-310-28-122-149-228-305-194z"/><path class="fil0" d="M2270 784c55 45 56 77 161 81h497c104-4 106-36 161-82-66-125-214-91-410-91s-345-34-410 91z"/><path class="fil2" d="M4481 4933c-31 45-12 41-58 67 106 14 234 9 317-36 58-32 147-119 158-198-82 30-147-9-230-22-2 196 14 224-188 189z"/><path class="fil5" d="m3280 3173 3-171c-56-15-77-22-136-13-64 45-47 141-45 229 46-3 139-20 178-45z"/><path class="fil1" d="M4481 4933c202 35 186 7 188-189-107-51-161 120-188 189z"/><path class="fil3" d="M3857 3288c-117 56-30 195 64 155 98-43 36-202-64-155zM4374 4151c-117 56-30 195 64 155 98-43 36-202-64-155z"/><path class="fil2" d="M3973 2632c29 21 59 54 89 66l-3-281h-87v215zM3283 4931v73h219c-34-106-102-106-219-73z"/><path class="fil1" d="M3533 2828c78 38 149 47 201-15-31-14-62-51-106-49-34 1-38 10-54 31-27 35 9 27-41 33z"/></g></g></svg>