<svg xmlns="http://www.w3.org/2000/svg" xml:space="preserve" width="25.6" height="25.599" style="shape-rendering:geometricPrecision;text-rendering:geometricPrecision;image-rendering:optimizeQuality;fill-rule:evenodd;clip-rule:evenodd" viewBox="0 0 10486 10486"><defs><style>.fil1{fill:#009ae4}.fil5{fill:#224370}.fil2{fill:#39689e}.fil0{fill:#49bbee}</style></defs><g id="Conteúdo_x0020_do_x0020_PowerClip"><g id="_2051596430480"><path class="fil0" d="m5617 7048-6-790-308-4 2-614 317-3c-35-180-11-2766-11-3180 0-331-22-745 5-1065H2139l563 5658 2916-3z"/><path class="fil1" d="m5620 5638 296 2-8 618h-298l6 790 3436 4 287-2835c-348 141-630 298-1100 278-926-39-1442-435-1823-937-189-248-341-594-399-975-79-521 22-754 138-1190h-541c-27 320-5 735-5 1065 0 415-24 3000 11 3180z"/><path class="fil2" d="M3338 9077c136-32 197-86 368-88 194-3 246 58 390 87l1513-3 2-614H2642c-181 0-318 8-430-61-202-124-276-438-15-651 108-88 241-66 425-66h2996l-1-632-2916 3-563-5658-67-678c-20-234-63-484-63-715H1v614h1434l326 3238c46 544 106 1091 162 1620l167 1635c-506 118-907 870-545 1466 432 712 1129 455 1794 504z"/><path d="M8254 2164c117-56 627-653 735-704l421 424c-43 77-1095 1129-1171 1176l3 15-2 1420c470 20 752-137 1100-278 693-424 1102-1064 1147-1810v-281c-9-160-35-324-78-491C10176 718 9295 1 8240 1c0 271-34 2075 14 2164z" style="fill:#01b763"/><path d="M6155 1393c-116 436-217 669-138 1190 58 381 210 727 399 975 381 502 898 898 1823 937l2-1420c-96 55-121 137-221 182-155-162-315-316-477-478-121-121-390-362-477-486l430-427c135 85 392 395 538 522l197-182c9-29-10-10 22-43-48-89-14-1893-14-2164-1019 0-1697 561-2085 1393z" style="fill:#82e371"/><path class="fil5" d="M5618 7680h3434v-628l-3435-4zM5609 9073l31 12c102 23 1382 8 1426 5 153-40 210-101 410-101 194 0 262 65 410 101 283 19 613 3 901 4 321 1 266 132 266-635H5612l-2 614z"/><path class="fil1" d="m7066 9090-77 70c-225 213-335 466-238 801 98 339 405 521 716 525h24c298-5 594-175 705-529 54-171 37-356-26-513-81-204-246-296-284-354-147-36-216-100-410-101-200 0-257 61-410 101z"/><path class="fil0" d="M3338 9077c-53 63-502 322-349 857 98 342 372 527 659 552h135c282-24 553-202 659-534 58-182 19-407-46-545-74-159-175-234-301-331-144-28-196-89-390-87-171 2-232 56-368 88z"/><path d="M8254 2164c-32 33-13 13-22 43l7 853c76-46 1129-1099 1171-1176l-421-424c-108 51-618 648-735 704z" style="fill:#d7f3f7"/><path d="m8241 3075-3-15-7-853-197 182c-146-128-403-438-538-522l-430 427c88 124 356 365 477 486 162 162 323 316 477 478 100-45 125-127 221-182z" style="fill:#f3fdff"/><path class="fil5" d="M6715 6255h615l-1-613-603-1z"/><path class="fil2" d="m3886 6255 615-1-1-611-602-2zM5610 6258l10-620-317 3-1 614z"/><path class="fil5" d="M5610 6258h299l8-619-297-1z"/></g></g></svg>