<svg xmlns="http://www.w3.org/2000/svg" xml:space="preserve" width="23.208" height="23.2" style="shape-rendering:geometricPrecision;text-rendering:geometricPrecision;image-rendering:optimizeQuality;fill-rule:evenodd;clip-rule:evenodd" viewBox="0 0 10922 10918"><defs><style>.fil0{fill:#000}.fil7{fill:#d7e1ee}.fil3{fill:#e42c2c}.fil1{fill:#f2a419}.fil8{fill:#f2f8fe}.fil4{fill:#f85555}.fil2{fill:#fdcc61}</style></defs><g id="Conteúdo_x0020_do_x0020_PowerClip"><g id="_2052032991184"><path class="fil0" d="M2263 188v941H945c-178 0-241 224-306 353C528 1704 4 2676 4 2847v1177c0 381 394 839 753 847v1200c0 103-298 255-494 635-445 862-325 1819 371 2501 153 149 125 89 123 371v1012c-2 190 1 329 189 329h9036c114 0 188-74 188-188V4872c359-8 753-466 753-847V2801c0-99-349-744-416-879-77-155-146-291-220-439-65-129-128-353-306-353H8663V189c0-114-74-188-188-188H2451c-114 0-188 75-188 188z"/><path class="fil1" d="M5464 4894v378c145 24 555 254 706 329 309 153 235 200 235 800 0 1130 104 1131-423 1129-172-1-345 0-517 0v377c1038 0 940-176 940 847v1789h3389V4873c-341-61-440-260-565-346-116 77-140 159-304 252-271 154-627 150-898 0-166-92-188-175-304-252-116 77-140 159-304 252-271 154-627 150-898 0-166-92-188-175-304-252-174 116-238 341-752 367z"/><path class="fil2" d="M5464 7907v-377h-518c-165 1-344 23-404-113-30-67-28-1320-20-1536 7-192 94-209 237-280 148-73 566-307 705-330v-378c-180-9-314-40-450-115-166-92-188-175-304-252-115 76-140 159-304 252-121 69-284 114-449 114-469 0-620-279-753-367-105 70-542 617-1202 252-166-92-188-175-304-252-92 63-124 136-231 207-102 68-202 115-332 139l-2 998c394-147 613-252 1104-217 1933 137 2630 2708 993 3784-269 177-589 309-971 342-495 42-730-67-1126-214v977h3389V8752c0-1025-97-847 942-847z"/><path class="fil3" d="M5463 2636h4961l-557-1128-4404-2z"/><path class="fil4" d="M5463 2636V1506H1055L499 2629z"/><path d="m2075 9412-5-1040c-322 215-244 488-655 76-202-202-387-386-589-589l256-266 609 608 385-383-2-1793c-941 18-1692 744-1692 1693-1 957 749 1668 1694 1695z" style="fill:#77f769"/><path d="m2076 7817 987-972 266 255-1259 1272 5 1040c949-34 1693-733 1693-1694 0-953-750-1674-1695-1694l2 1793z" style="fill:#40cc28"/><path class="fil0" d="M8033 5290c-220 82-485 235-702 342-249 123-173 330-173 863 0 1280-265 1025 1553 1036 473 3 329-253 329-1224 0-112 14-422-8-511-30-126-171-168-290-227-143-71-567-332-709-279zM5464 7530h517c527 1 423 1 423-1129 0-600 75-647-235-800-151-75-560-304-706-329-139 23-557 257-705 330-143 70-230 88-237 280-8 215-9 1469 20 1536 60 136 238 113 404 113h518zM7281 7926c-151 73-125 168-124 357 9 1725-204 1506 847 1506 152 0 831 20 922-20 195-87 113-600 113-827 0-1210 136-1035-847-1035-161 0-817-26-911 20z"/><path class="fil2" d="M5464 1130V376H2639v754z"/><path class="fil1" d="M5464 1130h2823V376H5464z"/><path class="fil7" d="M7910 3883c0 851 1130 852 1130 0v-871H7911v871z"/><path class="fil8" d="M1886 3883c0 852 1130 852 1130 0v-871H1887v871z"/><path class="fil3" d="M6404 3883c0 852 1130 852 1130 0v-871H6404v871zM9416 3883c0 852 1130 852 1130 0v-871H9417v871z"/><path class="fil4" d="M380 3883c0 852 1130 852 1130 0v-871H381v871zM3392 3883c0 852 1130 852 1130 0v-871H3392v871z"/><path class="fil7" d="M7534 5946v1207h1129V6000c0-97-549-317-549-317-83-10-469 221-581 263z"/><path class="fil8" d="M5465 10542V8283h-567v2259z"/><path class="fil7" d="M7534 9412h1129V8283H7534zM5465 10542h563V8283h-563z"/><path class="fil0" d="m2076 7817-385 383-609-608-256 266 589 589c412 412 333 139 655-76l1259-1272-266-255-987 972z"/><path class="fil7" d="M5454 4517c743-38 574-830 574-1506h-563l-11 1506z"/><path class="fil8" d="m5454 4517 11-1506h-567c0 666-165 1456 555 1506zM5465 7153V6047c0-101 31-278-31-345-118 7-401 193-536 244v1207h567z"/><path class="fil7" d="M5465 7153h563V5946l-517-254c-38-9-10-4-31-4-54 1-8-14-46 14 62 67 31 244 31 345v1106z"/></g></g></svg>